{
  "accessors": [
    {
      "bufferView": 2,
      "componentType": 5126,
      "count": 2419,
      "max": [
        24.09433937072754,
        17.288700103759766,
        267.9438781738281
      ],
      "min": [
        -1.0059399604797363,
        -5.429100036621094,
        -47.8896484375
      ],
      "type": "VEC3"
    },
    {
      "bufferView": 2,
      "byteOffset": 29028,
      "componentType": 5126,
      "count": 2419,
      "max": [
        1.0,
        1.0,
        1.0
      ],
      "min": [
        -1.0,
        -1.0,
        -1.0
      ],
      "type": "VEC3"
    },
    {
      "bufferView": 1,
      "componentType": 5126,
      "count": 2419,
      "max": [
        0.9971299767494202,
        1.001330018043518
      ],
      "min": [
        -0.0022100000642240047,
        -0.02401999942958355
      ],
      "type": "VEC2"
    },
    {
      "bufferView": 1,
      "byteOffset": 19352,
      "componentType": 5126,
      "count": 2419,
      "max": [
        0.0,
        0.0
      ],
      "min": [
        0.0,
        0.0
      ],
      "type": "VEC2"
    },
    {
      "bufferView": 1,
      "byteOffset": 38704,
      "componentType": 5126,
      "count": 2419,
      "max": [
        0.0,
        0.0
      ],
      "min": [
        0.0,
        0.0
      ],
      "type": "VEC2"
    },
    {
      "bufferView": 0,
      "componentType": 5125,
      "count": 4125,
      "type": "SCALAR"
    },
    {
      "bufferView": 2,
      "byteOffset": 58056,
      "componentType": 5126,
      "count": 107,
      "max": [
        22.209230422973633,
        16.925710678100586,
        235.3448486328125
      ],
      "min": [
        0.9913399815559387,
        -5.066110134124756,
        -47.8896484375
      ],
      "type": "VEC3"
    },
    {
      "bufferView": 2,
      "byteOffset": 59340,
      "componentType": 5126,
      "count": 107,
      "max": [
        -0.0,
        1.0,
        0.0
      ],
      "min": [
        -0.0,
        -1.0,
        0.0
      ],
      "type": "VEC3"
    },
    {
      "bufferView": 1,
      "byteOffset": 58056,
      "componentType": 5126,
      "count": 107,
      "max": [
        0.9902999997138977,
        1.0019700527191162
      ],
      "min": [
        -0.007960000075399876,
        0.02964000031352043
      ],
      "type": "VEC2"
    },
    {
      "bufferView": 1,
      "byteOffset": 58912,
      "componentType": 5126,
      "count": 107,
      "max": [
        0.0,
        0.0
      ],
      "min": [
        0.0,
        0.0
      ],
      "type": "VEC2"
    },
    {
      "bufferView": 1,
      "byteOffset": 59768,
      "componentType": 5126,
      "count": 107,
      "max": [
        0.0,
        0.0
      ],
      "min": [
        0.0,
        0.0
      ],
      "type": "VEC2"
    },
    {
      "bufferView": 0,
      "byteOffset": 16500,
      "componentType": 5125,
      "count": 393,
      "type": "SCALAR"
    },
    {
      "bufferView": 2,
      "byteOffset": 60624,
      "componentType": 5126,
      "count": 688,
      "max": [
        22.328649520874023,
        17.049489974975586,
        301.49114990234375
      ],
      "min": [
        -1.0,
        -5.189889907836914,
        -1.0
      ],
      "type": "VEC3"
    },
    {
      "bufferView": 2,
      "byteOffset": 68880,
      "componentType": 5126,
      "count": 688,
      "max": [
        1.0,
        1.0,
        1.0
      ],
      "min": [
        -1.0,
        -1.0,
        -1.0
      ],
      "type": "VEC3"
    },
    {
      "bufferView": 1,
      "byteOffset": 60624,
      "componentType": 5126,
      "count": 688,
      "max": [
        1.5697799921035767,
        1.0
      ],
      "min": [
        -0.5666900277137756,
        0.0
      ],
      "type": "VEC2"
    },
    {
      "bufferView": 1,
      "byteOffset": 66128,
      "componentType": 5126,
      "count": 688,
      "max": [
        0.0,
        0.0
      ],
      "min": [
        0.0,
        0.0
      ],
      "type": "VEC2"
    },
    {
      "bufferView": 1,
      "byteOffset": 71632,
      "componentType": 5126,
      "count": 688,
      "max": [
        0.0,
        0.0
      ],
      "min": [
        0.0,
        0.0
      ],
      "type": "VEC2"
    },
    {
      "bufferView": 0,
      "byteOffset": 18072,
      "componentType": 5125,
      "count": 1032,
      "type": "SCALAR"
    },
    {
      "bufferView": 2,
      "byteOffset": 77136,
      "componentType": 5126,
      "count": 121,
      "max": [
        22.559450149536133,
        17.288700103759766,
        323.98980712890625
      ],
      "min": [
        0.6411200165748596,
        -5.429100036621094,
        248.86346435546875
      ],
      "type": "VEC3"
    },
    {
      "bufferView": 2,
      "byteOffset": 78588,
      "componentType": 5126,
      "count": 121,
      "max": [
        1.0,
        1.0,
        1.0
      ],
      "min": [
        -1.0,
        -1.0,
        -1.0
      ],
      "type": "VEC3"
    },
    {
      "bufferView": 1,
      "byteOffset": 77136,
      "componentType": 5126,
      "count": 121,
      "max": [
        4.371669769287109,
        2.4084999561309814
      ],
      "min": [
        -3.4250500202178955,
        -1.3596199750900269
      ],
      "type": "VEC2"
    },
    {
      "bufferView": 1,
      "byteOffset": 78104,
      "componentType": 5126,
      "count": 121,
      "max": [
        0.0,
        0.0
      ],
      "min": [
        0.0,
        0.0
      ],
      "type": "VEC2"
    },
    {
      "bufferView": 1,
      "byteOffset": 79072,
      "componentType": 5126,
      "count": 121,
      "max": [
        0.0,
        0.0
      ],
      "min": [
        0.0,
        0.0
      ],
      "type": "VEC2"
    },
    {
      "bufferView": 0,
      "byteOffset": 22200,
      "componentType": 5125,
      "count": 216,
      "type": "SCALAR"
    },
    {
      "bufferView": 2,
      "byteOffset": 80040,
      "componentType": 5126,
      "count": 5,
      "max": [
        0.9913399815559387,
        16.925710678100586,
        235.3448486328125
      ],
      "min": [
        0.9913399815559387,
        -5.066110134124756,
        -47.8896484375
      ],
      "type": "VEC3"
    },
    {
      "bufferView": 2,
      "byteOffset": 80100,
      "componentType": 5126,
      "count": 5,
      "max": [
        -1.0,
        -0.0,
        -0.0
      ],
      "min": [
        -1.0,
        -0.0,
        -0.0
      ],
      "type": "VEC3"
    },
    {
      "bufferView": 1,
      "byteOffset": 80040,
      "componentType": 5126,
      "count": 5,
      "max": [
        0.9971299767494202,
        1.001330018043518
      ],
      "min": [
        -0.0022100000642240047,
        -0.0037799999117851257
      ],
      "type": "VEC2"
    },
    {
      "bufferView": 1,
      "byteOffset": 80080,
      "componentType": 5126,
      "count": 5,
      "max": [
        0.0,
        0.0
      ],
      "min": [
        0.0,
        0.0
      ],
      "type": "VEC2"
    },
    {
      "bufferView": 1,
      "byteOffset": 80120,
      "componentType": 5126,
      "count": 5,
      "max": [
        0.0,
        0.0
      ],
      "min": [
        0.0,
        0.0
      ],
      "type": "VEC2"
    },
    {
      "bufferView": 0,
      "byteOffset": 23064,
      "componentType": 5125,
      "count": 9,
      "type": "SCALAR"
    }
  ],
  "asset": {
    "extras": {
      "author": "quizzes (https://sketchfab.com/quizzes)",
      "license": "CC-BY-4.0 (http://creativecommons.org/licenses/by/4.0/)",
      "source": "https://sketchfab.com/3d-models/khrushchevka-4c759da8b8914ec4924f68ee9cc3cbd5",
      "title": "Khrushchevka"
    },
    "generator": "Sketchfab-12.68.0",
    "version": "2.0"
  },
  "bufferViews": [
    {
      "buffer": 0,
      "byteLength": 23100,
      "name": "floatBufferViews",
      "target": 34963
    },
    {
      "buffer": 0,
      "byteLength": 80160,
      "byteOffset": 23100,
      "byteStride": 8,
      "name": "floatBufferViews",
      "target": 34962
    },
    {
      "buffer": 0,
      "byteLength": 80160,
      "byteOffset": 103260,
      "byteStride": 12,
      "name": "floatBufferViews",
      "target": 34962
    }
  ],
  "buffers": [
    {
      "byteLength": 183420,
      "uri": "scene.bin"
    }
  ],
  "extensionsUsed": [
    "KHR_materials_clearcoat"
  ],
  "images": [
    {
      "uri": "textures/Material.001_baseColor.jpeg"
    },
    {
      "uri": "textures/Material.002_baseColor.jpeg"
    },
    {
      "uri": "textures/Material.003_baseColor.jpeg"
    },
    {
      "uri": "textures/Material.004_baseColor.jpeg"
    },
    {
      "uri": "textures/back_baseColor.jpeg"
    }
  ],
  "materials": [
    {
      "doubleSided": true,
      "name": "Material.001",
      "pbrMetallicRoughness": {
        "baseColorTexture": {
          "index": 0
        },
        "roughnessFactor": 0.40429773870504127
      }
    },
    {
      "doubleSided": true,
      "name": "Material.002",
      "pbrMetallicRoughness": {
        "baseColorTexture": {
          "index": 1
        },
        "roughnessFactor": 0.5013626386534493
      }
    },
    {
      "doubleSided": true,
      "extensions": {
        "KHR_materials_clearcoat": {
          "clearcoatFactor": 1.0,
          "clearcoatRoughnessFactor": 0.04
        }
      },
      "name": "Material.003",
      "pbrMetallicRoughness": {
        "baseColorFactor": [
          0.5426625185792551,
          0.5426625185792551,
          0.5426625185792551,
          1.0
        ],
        "baseColorTexture": {
          "index": 2
        },
        "metallicFactor": 0.8445493110320853,
        "roughnessFactor": 0.3818657833075373
      }
    },
    {
      "doubleSided": true,
      "name": "Material.004",
      "pbrMetallicRoughness": {
        "baseColorTexture": {
          "index": 3
        },
        "roughnessFactor": 0.3126833933704304
      }
    },
    {
      "doubleSided": true,
      "name": "back",
      "pbrMetallicRoughness": {
        "baseColorTexture": {
          "index": 4
        },
        "roughnessFactor": 0.4168763550572425
      }
    }
  ],
  "meshes": [
    {
      "name": "Cube.003_0",
      "primitives": [
        {
          "attributes": {
            "NORMAL": 1,
            "POSITION": 0,
            "TEXCOORD_0": 2,
            "TEXCOORD_1": 3,
            "TEXCOORD_2": 4
          },
          "indices": 5,
          "material": 0,
          "mode": 4
        }
      ]
    },
    {
      "name": "Cube.003_1",
      "primitives": [
        {
          "attributes": {
            "NORMAL": 7,
            "POSITION": 6,
            "TEXCOORD_0": 8,
            "TEXCOORD_1": 9,
            "TEXCOORD_2": 10
          },
          "indices": 11,
          "material": 1,
          "mode": 4
        }
      ]
    },
    {
      "name": "Cube.003_2",
      "primitives": [
        {
          "attributes": {
            "NORMAL": 13,
            "POSITION": 12,
            "TEXCOORD_0": 14,
            "TEXCOORD_1": 15,
            "TEXCOORD_2": 16
          },
          "indices": 17,
          "material": 2,
          "mode": 4
        }
      ]
    },
    {
      "name": "Cube.003_3",
      "primitives": [
        {
          "attributes": {
            "NORMAL": 19,
            "POSITION": 18,
            "TEXCOORD_0": 20,
            "TEXCOORD_1": 21,
            "TEXCOORD_2": 22
          },
          "indices": 23,
          "material": 3,
          "mode": 4
        }
      ]
    },
    {
      "name": "Cube.003_4",
      "primitives": [
        {
          "attributes": {
            "NORMAL": 25,
            "POSITION": 24,
            "TEXCOORD_0": 26,
            "TEXCOORD_1": 27,
            "TEXCOORD_2": 28
          },
          "indices": 29,
          "material": 4,
          "mode": 4
        }
      ]
    }
  ],
  "nodes": [
    {
      "children": [
        1
      ],
      "matrix": [
        1.0,
        0.0,
        0.0,
        0.0,
        0.0,
        2.220446049250313e-16,
        -1.0,
        0.0,
        0.0,
        1.0,
        2.220446049250313e-16,
        0.0,
        0.0,
        0.0,
        0.0,
        1.0
      ],
      "name": "Sketchfab_model"
    },
    {
      "children": [
        2
      ],
      "name": "Root"
    },
    {
      "children": [
        3,
        4,
        5,
        6,
        7
      ],
      "matrix": [
        0.21922000000000003,
        0.0,
        0.0,
        0.0,
        0.0,
        0.5847600000000001,
        0.0,
        0.0,
        0.0,
        0.0,
        0.017620000000000004,
        0.0,
        -2.5562899999999997,
        -4.273340000000001,
        6.3119,
        1.0
      ],
      "name": "Cube.003"
    },
    {
      "mesh": 0,
      "name": "Cube.003_0"
    },
    {
      "mesh": 1,
      "name": "Cube.003_1"
    },
    {
      "mesh": 2,
      "name": "Cube.003_2"
    },
    {
      "mesh": 3,
      "name": "Cube.003_3"
    },
    {
      "mesh": 4,
      "name": "Cube.003_4"
    }
  ],
  "samplers": [
    {
      "magFilter": 9729,
      "minFilter": 9987,
      "wrapS": 10497,
      "wrapT": 10497
    }
  ],
  "scene": 0,
  "scenes": [
    {
      "name": "Sketchfab_Scene",
      "nodes": [
        0
      ]
    }
  ],
  "textures": [
    {
      "sampler": 0,
      "source": 0
    },
    {
      "sampler": 0,
      "source": 1
    },
    {
      "sampler": 0,
      "source": 2
    },
    {
      "sampler": 0,
      "source": 3
    },
    {
      "sampler": 0,
      "source": 4
    }
  ]
}
