{
  "accessors": [
    {
      "bufferView": 2,
      "componentType": 5126,
      "count": 5726,
      "max": [
        8.533946990966797,
        1.6113250255584717,
        4.697668075561523
      ],
      "min": [
        -11.071224212646484,
        -0.9633359909057617,
        -1.423732042312622
      ],
      "type": "VEC3"
    },
    {
      "bufferView": 2,
      "byteOffset": 68712,
      "componentType": 5126,
      "count": 5726,
      "max": [
        1.0,
        1.0,
        1.0
      ],
      "min": [
        -1.0,
        -1.0,
        -1.0
      ],
      "type": "VEC3"
    },
    {
      "bufferView": 3,
      "componentType": 5126,
      "count": 5726,
      "max": [
        1.0,
        1.0,
        1.0,
        1.0
      ],
      "min": [
        -0.9643916487693787,
        -1.0,
        -1.0,
        -1.0
      ],
      "type": "VEC4"
    },
    {
      "bufferView": 1,
      "componentType": 5126,
      "count": 5726,
      "max": [
        0.9648810029029846,
        0.9980080127716064
      ],
      "min": [
        0.0019259999971836805,
        0.0019920000340789557
      ],
      "type": "VEC2"
    },
    {
      "bufferView": 0,
      "componentType": 5125,
      "count": 14211,
      "type": "SCALAR"
    },
    {
      "bufferView": 2,
      "byteOffset": 137424,
      "componentType": 5126,
      "count": 2201,
      "max": [
        8.533946990966797,
        1.5467560291290283,
        4.3713698387146
      ],
      "min": [
        -10.570507049560547,
        -0.9544559717178345,
        -1.3872720003128052
      ],
      "type": "VEC3"
    },
    {
      "bufferView": 2,
      "byteOffset": 163836,
      "componentType": 5126,
      "count": 2201,
      "max": [
        1.0,
        1.0,
        1.0
      ],
      "min": [
        -1.0,
        -1.0,
        -1.0
      ],
      "type": "VEC3"
    },
    {
      "bufferView": 3,
      "byteOffset": 91616,
      "componentType": 5126,
      "count": 2201,
      "max": [
        1.0,
        1.0,
        1.0,
        1.0
      ],
      "min": [
        -0.9484517574310303,
        -1.0,
        -1.0,
        -1.0
      ],
      "type": "VEC4"
    },
    {
      "bufferView": 1,
      "byteOffset": 45808,
      "componentType": 5126,
      "count": 2201,
      "max": [
        0.9648810029029846,
        0.9943010210990906
      ],
      "min": [
        0.0019259999971836805,
        0.0019920000340789557
      ],
      "type": "VEC2"
    },
    {
      "bufferView": 0,
      "byteOffset": 56844,
      "componentType": 5125,
      "count": 6540,
      "type": "SCALAR"
    },
    {
      "bufferView": 2,
      "byteOffset": 190248,
      "componentType": 5126,
      "count": 3435,
      "max": [
        7.365703105926514,
        1.3275359869003296,
        4.6222758293151855
      ],
      "min": [
        -10.611944198608398,
        -0.8249289989471436,
        -1.423732042312622
      ],
      "type": "VEC3"
    },
    {
      "bufferView": 2,
      "byteOffset": 231468,
      "componentType": 5126,
      "count": 3435,
      "max": [
        1.0,
        1.0,
        1.0
      ],
      "min": [
        -1.0,
        -1.0,
        -1.0
      ],
      "type": "VEC3"
    },
    {
      "bufferView": 3,
      "byteOffset": 126832,
      "componentType": 5126,
      "count": 3435,
      "max": [
        0.999949038028717,
        1.0,
        1.0,
        1.0
      ],
      "min": [
        -0.9987719058990479,
        -1.0,
        -1.0,
        -1.0
      ],
      "type": "VEC4"
    },
    {
      "bufferView": 1,
      "byteOffset": 63416,
      "componentType": 5126,
      "count": 3435,
      "max": [
        0.9598820209503174,
        0.9939410090446472
      ],
      "min": [
        0.009806999936699867,
        0.0019920000340789557
      ],
      "type": "VEC2"
    },
    {
      "bufferView": 0,
      "byteOffset": 83004,
      "componentType": 5125,
      "count": 15054,
      "type": "SCALAR"
    },
    {
      "bufferView": 2,
      "byteOffset": 272688,
      "componentType": 5126,
      "count": 454,
      "max": [
        7.365703105926514,
        0.6274769902229309,
        4.56516695022583
      ],
      "min": [
        -10.605403900146484,
        -0.5701950192451477,
        -1.4097100496292114
      ],
      "type": "VEC3"
    },
    {
      "bufferView": 2,
      "byteOffset": 278136,
      "componentType": 5126,
      "count": 454,
      "max": [
        1.0,
        1.0,
        1.0
      ],
      "min": [
        -0.9980023503303528,
        -1.0,
        -0.9999942183494568
      ],
      "type": "VEC3"
    },
    {
      "bufferView": 3,
      "byteOffset": 181792,
      "componentType": 5126,
      "count": 454,
      "max": [
        1.0,
        1.0,
        1.0,
        1.0
      ],
      "min": [
        -0.02392665110528469,
        -1.0,
        -1.0,
        1.0
      ],
      "type": "VEC4"
    },
    {
      "bufferView": 1,
      "byteOffset": 90896,
      "componentType": 5126,
      "count": 454,
      "max": [
        0.9648810029029846,
        0.9803509712219238
      ],
      "min": [
        0.015255000442266464,
        0.0019920000340789557
      ],
      "type": "VEC2"
    },
    {
      "bufferView": 0,
      "byteOffset": 143220,
      "componentType": 5125,
      "count": 1491,
      "type": "SCALAR"
    }
  ],
  "asset": {
    "extras": {
      "author": "JackJohn2942 (https://sketchfab.com/JackJohn2942)",
      "license": "CC-BY-4.0 (http://creativecommons.org/licenses/by/4.0/)",
      "source": "https://sketchfab.com/3d-models/tactical-shotgun-fortnite-br-5f21aaf0a51e4e619bc89686ef92be4e",
      "title": "Tactical Shotgun (Fortnite BR)"
    },
    "generator": "Sketchfab-12.67.0",
    "version": "2.0"
  },
  "bufferViews": [
    {
      "buffer": 0,
      "byteLength": 149184,
      "name": "floatBufferViews",
      "target": 34963
    },
    {
      "buffer": 0,
      "byteLength": 94528,
      "byteOffset": 149184,
      "byteStride": 8,
      "name": "floatBufferViews",
      "target": 34962
    },
    {
      "buffer": 0,
      "byteLength": 283584,
      "byteOffset": 243712,
      "byteStride": 12,
      "name": "floatBufferViews",
      "target": 34962
    },
    {
      "buffer": 0,
      "byteLength": 189056,
      "byteOffset": 527296,
      "byteStride": 16,
      "name": "floatBufferViews",
      "target": 34962
    }
  ],
  "buffers": [
    {
      "byteLength": 716352,
      "uri": "scene.bin"
    }
  ],
  "images": [
    {
      "uri": "textures/initialShadingGroup_baseColor.png"
    },
    {
      "uri": "textures/initialShadingGroup_metallicRoughness.png"
    },
    {
      "uri": "textures/initialShadingGroup_normal.png"
    }
  ],
  "materials": [
    {
      "doubleSided": true,
      "name": "initialShadingGroup",
      "normalTexture": {
        "index": 2
      },
      "occlusionTexture": {
        "index": 1
      },
      "pbrMetallicRoughness": {
        "baseColorTexture": {
          "index": 0
        },
        "metallicRoughnessTexture": {
          "index": 1
        }
      }
    }
  ],
  "meshes": [
    {
      "name": "Object_0",
      "primitives": [
        {
          "attributes": {
            "NORMAL": 1,
            "POSITION": 0,
            "TANGENT": 2,
            "TEXCOORD_0": 3
          },
          "indices": 4,
          "material": 0,
          "mode": 4
        }
      ]
    },
    {
      "name": "Object_1",
      "primitives": [
        {
          "attributes": {
            "NORMAL": 6,
            "POSITION": 5,
            "TANGENT": 7,
            "TEXCOORD_0": 8
          },
          "indices": 9,
          "material": 0,
          "mode": 4
        }
      ]
    },
    {
      "name": "Object_2",
      "primitives": [
        {
          "attributes": {
            "NORMAL": 11,
            "POSITION": 10,
            "TANGENT": 12,
            "TEXCOORD_0": 13
          },
          "indices": 14,
          "material": 0,
          "mode": 4
        }
      ]
    },
    {
      "name": "Object_3",
      "primitives": [
        {
          "attributes": {
            "NORMAL": 16,
            "POSITION": 15,
            "TANGENT": 17,
            "TEXCOORD_0": 18
          },
          "indices": 19,
          "material": 0,
          "mode": 4
        }
      ]
    }
  ],
  "nodes": [
    {
      "children": [
        1
      ],
      "matrix": [
        1.0,
        0.0,
        0.0,
        0.0,
        0.0,
        2.220446049250313e-16,
        -1.0,
        0.0,
        0.0,
        1.0,
        2.220446049250313e-16,
        0.0,
        0.0,
        0.0,
        0.0,
        1.0
      ],
      "name": "Sketchfab_model"
    },
    {
      "children": [
        2,
        3,
        4,
        5
      ],
      "name": "TacticalShotgun.obj.cleaner.materialmerger.gles"
    },
    {
      "mesh": 0,
      "name": "Object_2"
    },
    {
      "mesh": 1,
      "name": "Object_3"
    },
    {
      "mesh": 2,
      "name": "Object_4"
    },
    {
      "mesh": 3,
      "name": "Object_5"
    }
  ],
  "samplers": [
    {
      "magFilter": 9729,
      "minFilter": 9987,
      "wrapS": 10497,
      "wrapT": 10497
    }
  ],
  "scene": 0,
  "scenes": [
    {
      "name": "Sketchfab_Scene",
      "nodes": [
        0
      ]
    }
  ],
  "textures": [
    {
      "sampler": 0,
      "source": 0
    },
    {
      "sampler": 0,
      "source": 1
    },
    {
      "sampler": 0,
      "source": 2
    }
  ]
}
